<?xml version="1.0" encoding="UTF-8" standalone="no"?>
<svg
   width="456"
   height="456"
   fill="none"
   version="1.1"
   id="svg24"
   sodipodi:docname="splash.svg"
   inkscape:version="1.2.2 (732a01da63, 2022-12-09)"
   xmlns:inkscape="http://www.inkscape.org/namespaces/inkscape"
   xmlns:sodipodi="http://sodipodi.sourceforge.net/DTD/sodipodi-0.dtd"
   xmlns="http://www.w3.org/2000/svg"
   xmlns:svg="http://www.w3.org/2000/svg">
  <defs
     id="defs28" />
  <sodipodi:namedview
     id="namedview26"
     pagecolor="#ffffff"
     bordercolor="#000000"
     borderopacity="0.25"
     inkscape:showpageshadow="2"
     inkscape:pageopacity="0.0"
     inkscape:pagecheckerboard="0"
     inkscape:deskcolor="#d1d1d1"
     showgrid="false"
     inkscape:zoom="1.2979131"
     inkscape:cx="238.45972"
     inkscape:cy="227.28794"
     inkscape:window-width="1920"
     inkscape:window-height="1017"
     inkscape:window-x="-8"
     inkscape:window-y="-8"
     inkscape:window-maximized="1"
     inkscape:current-layer="g22" />
  <g
     id="g5">
    <title
       id="title2">background</title>
    <rect
       x="-1"
       y="-1"
       width="458"
       height="458"
       id="canvas_background"
       fill="none" />
  </g>
  <g
     id="g22">
    <title
       id="title7">Layer 1</title>
    <path
       d="m 136.24685,265.08288 c 4.2891,0 7.4188,0.94125 9.38909,2.82151 1.97028,1.86667 2.95553,4.44156 2.95553,7.72464 0,1.48204 -0.21971,2.9007 -0.6592,4.25602 -0.4397,1.34173 -1.15962,2.53642 -2.15978,3.58628 -0.98526,1.04759 -2.30368,1.88024 -3.9557,2.49796 -1.65204,0.59959 -3.69061,0.90052 -6.11571,0.90052 h -3.02362 v 12.02817 h -7.04759 v -33.8151 z m -0.36385,5.87605 h -3.20554 v 10.03708 h 2.31902 c 1.31843,0 2.4627,-0.17649 3.43284,-0.53173 0.96991,-0.35522 1.72008,-0.90957 2.25075,-1.66528 0.53043,-0.75575 0.79555,-1.7264 0.79555,-2.91429 0,-1.66531 -0.45462,-2.89844 -1.36404,-3.70169 -0.9094,-0.8168 -2.31878,-1.22409 -4.22858,-1.22409 z"
       fill="white"
       id="svg_2"
       style="fill:#ffffff;stroke-width:2.24327" />
    <path
       d="m 182.44275,281.66574 c 0,3.81028 -0.71993,6.99381 -2.15979,9.55286 -1.42471,2.5432 -3.49353,4.46418 -6.20645,5.75842 -2.7129,1.28065 -5.97916,1.92096 -9.7983,1.92096 h -9.412 v -33.8151 h 10.43484 c 3.48599,0 6.50959,0.63354 9.07105,1.89609 2.56143,1.24897 4.54685,3.10887 5.95647,5.57513 1.40938,2.45045 2.11418,5.48915 2.11418,9.11164 z m -7.32049,0.18554 c 0,-2.49795 -0.36363,-4.54791 -1.09113,-6.15211 -0.71235,-1.61778 -1.77324,-2.81471 -3.18284,-3.58402 -1.39426,-0.77155 -3.12213,-1.15622 -5.18339,-1.15622 h -3.75108 v 22.01774 h 3.0236 c 3.44039,0 5.99427,-0.93221 7.66143,-2.79888 1.68228,-1.86669 2.52341,-4.64068 2.52341,-8.32651 z"
       fill="white"
       id="svg_3"
       style="fill:#ffffff;stroke-width:2.24327" />
    <path
       d="m 196.26527,298.89798 h -6.93396 v -33.8151 h 19.05128 v 5.87605 h -12.11732 v 8.71795 h 11.27619 v 5.85119 h -11.27619 z"
       fill="white"
       id="svg_4"
       style="fill:#ffffff;stroke-width:2.24327" />
    <path
       d="m 253.05523,265.08288 -11.29887,33.8151 h -7.68413 l -11.27619,-33.8151 h 7.11587 l 6.25182,20.12162 c 0.10611,0.33942 0.28045,0.97973 0.52289,1.92098 0.24243,0.92543 0.48506,1.91194 0.72748,2.95953 0.25777,1.03403 0.43191,1.88931 0.52288,2.5681 0.0909,-0.67879 0.25021,-1.53407 0.4775,-2.5681 0.24242,-1.03175 0.47728,-2.01147 0.70481,-2.9369 0.24243,-0.94126 0.41678,-1.58837 0.52286,-1.94361 l 6.29721,-20.12162 z"
       fill="white"
       id="svg_5"
       style="fill:#ffffff;stroke-width:2.24327" />
    <path
       d="m 263.64953,273.04057 v 25.85741 h -6.93395 v -25.85741 z m -3.45574,-10.13209 c 1.03063,0 1.91735,0.24663 2.65996,0.73989 0.74262,0.47968 1.11404,1.3802 1.11404,2.70612 0,1.3123 -0.37142,2.22189 -1.11404,2.73099 -0.74261,0.49325 -1.62933,0.73989 -2.65996,0.73989 -1.04576,0 -1.94004,-0.24664 -2.68268,-0.73989 -0.72746,-0.5091 -1.09111,-1.41869 -1.09111,-2.73099 0,-1.32592 0.36365,-2.22644 1.09111,-2.70612 0.74264,-0.49326 1.63692,-0.73989 2.68268,-0.73989 z"
       fill="white"
       id="svg_6"
       style="fill:#ffffff;stroke-width:2.24327" />
    <path
       d="m 281.42774,272.5541 c 2.34862,0 4.3725,0.46157 6.06946,1.387 1.69695,0.90957 3.00915,2.23548 3.93436,3.97772 0.92297,1.74222 1.38558,3.87137 1.38558,6.38517 v 3.42337 h -16.39129 c 0.0757,1.98886 0.66054,3.55234 1.75033,4.69496 1.10759,1.12454 2.63773,1.68793 4.59267,1.68793 1.62134,0 3.107,-0.1697 4.45702,-0.50909 1.34777,-0.3394 2.73558,-0.8485 4.15898,-1.52728 v 5.45974 c -1.25658,0.63127 -2.57546,1.09284 -3.95437,1.38699 -1.36556,0.2919 -3.02471,0.43897 -4.97967,0.43897 -2.54654,0 -4.80396,-0.47743 -6.77447,-1.43452 -1.95495,-0.95483 -3.49399,-2.41197 -4.61558,-4.37141 -1.10647,-1.9572 -1.6596,-4.42347 -1.6596,-7.40109 0,-3.02062 0.5002,-5.53442 1.50057,-7.5391 1.01528,-2.02055 2.42601,-3.52974 4.22748,-4.53207 1.80372,-1.01819 3.90323,-1.52729 6.29853,-1.52729 z m 0.0445,5.01854 c -1.34777,0 -2.46871,0.43894 -3.36277,1.3191 -0.88073,0.87791 -1.38781,2.25812 -1.52347,4.13838 h 9.73025 c -0.0157,-1.04761 -0.20461,-1.9798 -0.56937,-2.79663 -0.34918,-0.81908 -0.87849,-1.46619 -1.59021,-1.94361 -0.69834,-0.47741 -1.59241,-0.71724 -2.68443,-0.71724 z"
       fill="white"
       id="svg_7"
       style="fill:#ffffff;stroke-width:2.24327" />
    <path
       d="m 319.34792,298.89798 -1.95494,-9.04375 c -0.10674,-0.54078 -0.28025,-1.33496 -0.52266,-2.38255 -0.24242,-1.06345 -0.50709,-2.19703 -0.7962,-3.40074 -0.27133,-1.21732 -0.52932,-2.34185 -0.77175,-3.37586 -0.22908,-1.03404 -0.39588,-1.78748 -0.50043,-2.26717 h -0.2046 c -0.10674,0.47969 -0.27357,1.23313 -0.50042,2.26717 -0.22684,1.03401 -0.48483,2.15854 -0.77396,3.37586 -0.27135,1.21954 -0.52934,2.36671 -0.77176,3.44825 -0.24241,1.06343 -0.42479,1.8712 -0.54711,2.42782 l -2.04612,8.95097 h -7.45505 l -7.23043,-25.85741 h 6.91238 l 2.93131,11.44668 c 0.19795,0.80323 0.38699,1.75807 0.56937,2.86902 0.18236,1.09512 0.34027,2.15856 0.47594,3.1926 0.15345,1.01592 0.26688,1.82593 0.34251,2.4278 h 0.18237 c 0.029,-0.448 0.0889,-1.04082 0.18016,-1.78069 0.10674,-0.73989 0.22017,-1.50465 0.34248,-2.28979 0.13558,-0.80326 0.25577,-1.51823 0.36252,-2.15177 0.12241,-0.64713 0.21353,-1.08608 0.27357,-1.31687 l 3.13592,-12.39698 h 7.63964 l 2.978,12.39698 c 0.10674,0.44575 0.24243,1.15622 0.40924,2.12688 0.18237,0.97068 0.34028,1.97303 0.47818,3.00706 0.13557,1.01818 0.21126,1.81915 0.22684,2.40518 h 0.18238 c 0.06,-0.52494 0.16672,-1.30328 0.31804,-2.33731 0.15125,-1.03177 0.32471,-2.11104 0.52265,-3.23783 0.21128,-1.14037 0.42481,-2.11105 0.63607,-2.91428 l 3.04696,-11.44668 h 6.79672 l -7.31936,25.85741 z"
       fill="white"
       id="svg_8"
       style="fill:#ffffff;stroke-width:2.24327" />
    <path
       d="m 191.55916,325.65141 c 0,3.80803 -0.71993,6.99155 -2.15978,9.5506 -1.42474,2.54547 -3.49356,4.46419 -6.20646,5.76067 -2.7129,1.27838 -5.97893,1.91872 -9.79831,1.91872 h -9.41197 v -33.81512 h 10.43504 c 3.48577,0 6.50937,0.63355 9.07082,1.89836 2.56144,1.24897 4.54685,3.1066 5.95646,5.57287 1.40938,2.4527 2.1142,5.48916 2.1142,9.1139 z m -7.32049,0.18328 c 0,-2.49795 -0.36364,-4.54789 -1.09111,-6.15212 -0.71238,-1.61777 -1.77324,-2.81245 -3.18286,-3.58401 -1.39427,-0.77155 -3.12213,-1.1562 -5.18339,-1.1562 h -3.7511 v 22.01772 h 3.0236 c 3.4404,0 5.99429,-0.93222 7.66144,-2.79889 1.68228,-1.86441 2.52342,-4.64067 2.52342,-8.3265 z"
       fill="white"
       id="svg_9"
       style="fill:#ffffff;stroke-width:2.24327" />
    <path
       d="m 208.38259,316.53751 c 2.34905,0 4.37249,0.46384 6.0699,1.38702 1.69763,0.91182 3.00849,2.23773 3.93303,3.97995 0.92453,1.74224 1.38692,3.86912 1.38692,6.38292 v 3.42336 h -16.39152 c 0.0759,1.98885 0.65942,3.5546 1.75053,4.69497 1.10649,1.12452 2.63731,1.68793 4.59246,1.68793 1.62157,0 3.10702,-0.1697 4.4559,-0.5091 1.3489,-0.33938 2.7356,-0.84849 4.16034,-1.52727 v 5.45974 c -1.25793,0.63127 -2.57657,1.09511 -3.9557,1.387 -1.36426,0.29413 -3.02386,0.43894 -4.97879,0.43894 -2.54632,0 -4.80464,-0.47741 -6.77492,-1.43225 -1.95518,-0.95708 -3.49354,-2.41422 -4.61514,-4.37139 -1.10625,-1.95945 -1.65961,-4.42574 -1.65961,-7.40111 0,-3.02289 0.50021,-5.53667 1.50057,-7.54136 1.01553,-2.01827 2.4249,-3.52971 4.22861,-4.53206 1.8035,-1.0182 3.90257,-1.52729 6.29742,-1.52729 z m 0.0455,5.01854 c -1.34889,0 -2.47047,0.44121 -3.36455,1.31912 -0.87917,0.87789 -1.38692,2.2581 -1.52325,4.14063 h 9.73024 c -0.0157,-1.04988 -0.2046,-1.98208 -0.56847,-2.7989 -0.34852,-0.81681 -0.87895,-1.46618 -1.5913,-1.94361 -0.69725,-0.47741 -1.59132,-0.71724 -2.68267,-0.71724 z"
       fill="white"
       id="svg_10"
       style="fill:#ffffff;stroke-width:2.24327" />
    <path
       d="m 255.2606,316.53751 c 2.87948,0 5.0544,0.75573 6.52472,2.26718 1.48522,1.49558 2.22783,3.90078 2.22783,7.21554 v 16.86117 h -6.95662 v -15.1031 c 0,-1.85083 -0.3107,-3.24463 -0.9321,-4.18589 -0.6214,-0.94125 -1.58375,-1.41188 -2.88727,-1.41188 -1.83397,0 -3.13725,0.67201 -3.91034,2.01374 -0.77286,1.32592 -1.15939,3.22879 -1.15939,5.71092 v 12.97621 h -6.93396 v -15.1031 c 0,-1.23314 -0.1362,-2.26716 -0.40922,-3.09981 -0.27288,-0.83266 -0.68968,-1.45714 -1.25037,-1.87346 -0.56068,-0.41633 -1.28061,-0.6245 -2.15978,-0.6245 -1.28817,0 -2.30367,0.33261 -3.04629,0.99555 -0.72748,0.64713 -1.25037,1.61101 -1.56863,2.89166 -0.30313,1.26256 -0.45482,2.81246 -0.45482,4.64746 v 12.1662 h -6.93394 v -25.85742 h 5.29702 l 0.93212,3.30798 h 0.38653 c 0.51532,-0.896 1.15942,-1.62005 1.93249,-2.1744 0.788,-0.55661 1.65204,-0.96388 2.5917,-1.22634 0.93967,-0.26248 1.89445,-0.39371 2.86437,-0.39371 1.86418,0 3.44061,0.30773 4.72879,0.92541 1.3035,0.61772 2.30367,1.57254 3.00092,2.86904 h 0.61383 c 0.75775,-1.32818 1.8264,-2.28979 3.20553,-2.89165 1.39427,-0.60187 2.82656,-0.9028 4.29688,-0.9028 z"
       fill="white"
       id="svg_11"
       style="fill:#ffffff;stroke-width:2.24327" />
    <path
       d="m 294.24945,329.90519 c 0,2.15854 -0.28692,4.07274 -0.86294,5.73577 -0.56046,1.6653 -1.38782,3.07719 -2.47984,4.23339 -1.07421,1.14038 -2.37751,2.0047 -3.90988,2.59072 -1.51459,0.58602 -3.22711,0.8779 -5.13758,0.8779 -1.78814,0 -3.43171,-0.29188 -4.93296,-0.8779 -1.48568,-0.58602 -2.78229,-1.45034 -3.88764,-2.59072 -1.09111,-1.1562 -1.94005,-2.56809 -2.5461,-4.23339 -0.59115,-1.66303 -0.88673,-3.57723 -0.88673,-5.73577 0,-2.86676 0.50018,-5.29458 1.50057,-7.28344 1.00016,-1.99114 2.42377,-3.50029 4.27418,-4.53433 1.84819,-1.03402 4.05446,-1.54991 6.61437,-1.54991 2.37972,0 4.48812,0.51589 6.32075,1.54991 1.85041,1.03404 3.29606,2.54319 4.34358,4.53433 1.06089,1.98886 1.59022,4.41668 1.59022,7.28344 z m -17.57228,0 c 0,1.69697 0.18015,3.12242 0.54489,4.2809 0.36252,1.15619 0.93187,2.02731 1.70585,2.61335 0.77174,0.58601 1.77923,0.87789 3.02249,0.87789 1.22767,0 2.2196,-0.29188 2.97802,-0.87789 0.77397,-0.58604 1.33443,-1.45716 1.68361,-2.61335 0.36252,-1.15848 0.5449,-2.58393 0.5449,-4.2809 0,-1.71057 -0.18238,-3.12924 -0.5449,-4.25378 -0.34918,-1.14264 -0.90964,-1.9979 -1.68361,-2.56809 -0.77176,-0.57018 -1.78149,-0.85526 -3.0225,-0.85526 -1.83485,0 -3.16927,0.64032 -4.00108,1.9187 -0.81845,1.28066 -1.22767,3.19938 -1.22767,5.75843 z"
       fill="white"
       id="svg_12"
       style="fill:#ffffff;stroke-width:2.24327" />
    <path
       fill-rule="evenodd"
       clip-rule="evenodd"
       d="m 283.0491,73.941139 c 3.05361,2.876944 5.48451,5.264705 7.29489,7.163511 1.81039,1.898578 3.19598,3.509803 4.15678,4.832994 0.9608,1.323416 1.55459,2.445457 1.78146,3.366125 0.22686,0.920442 0.34029,1.72594 0.34029,2.416496 v 2.761775 h -25.11207 c -1.13114,0 -2.12086,-0.431484 -2.9691,-1.29468 -0.8485,-0.862969 -1.5553,-1.869845 -2.12087,-3.020621 -0.56559,-1.150778 -0.98994,-2.330291 -1.2726,-3.538539 -0.28269,-1.208248 -0.42415,-2.157652 -0.42415,-2.848207 V 62.37612 h 0.50888 c 0.90497,0 1.83818,0.143907 2.79964,0.431484 0.96146,0.287808 2.06437,0.834236 3.3085,1.639733 1.24413,0.805726 2.79876,1.956278 4.66698,3.452333 1.86598,1.496057 4.21235,3.509803 7.04137,6.041469 z m -29.01462,10.011492 c 0,2.301555 0.33938,4.689317 1.01794,7.16351 0.67878,2.473967 1.75345,4.775523 3.22379,6.904438 1.47054,2.128921 3.33698,3.883821 5.59906,5.264701 2.26231,1.38089 4.92051,2.07145 7.97458,2.07145 h 24.77267 v 62.9554 c -4.6772,-2.07846 -9.84147,-3.2315 -15.27039,-3.2315 -21.08472,0 -38.17639,17.38814 -38.17639,38.83773 0,7.46963 2.0726,14.44671 5.66489,20.36849 h -57.58372 c -2.14934,0 -4.49637,-0.63309 -7.04137,-1.89883 -2.54499,-1.26593 -4.92051,-2.9344 -7.12609,-5.00584 -2.2056,-2.07123 -4.0438,-4.43025 -5.51434,-7.07708 -1.47032,-2.64662 -2.20561,-5.40861 -2.20561,-8.28532 V 84.643188 c 0,-2.416723 0.53735,-4.919428 1.61178,-7.508788 1.07468,-2.589137 2.545,-4.976898 4.41143,-7.163284 1.86643,-2.186389 3.9873,-3.998985 6.36259,-5.437345 2.37551,-1.438359 4.86401,-2.157651 7.46548,-2.157651 h 64.8137 z m -18.20457,18.124179 h 5.35441 c 16.73293,1.26504 25.14697,11.29531 27.44176,25.57233 -4.97187,-10.12056 -12.3344,-18.07237 -28.7802,-17.34945 7.84048,2.98192 15.48967,6.14464 16.92398,15.18071 -2.96425,-3.79512 -8.98786,-7.13862 -15.58554,-6.77705 -12.3344,0.72291 -24.38189,10.66245 -24.19062,23.22281 0.0956,9.39741 6.69306,16.08418 16.82832,16.08418 5.45006,0 9.84836,-2.16874 12.71694,-4.8796 0.0318,-0.03 0.0796,-0.0677 0.13542,-0.11151 0.2789,-0.21971 0.75686,-0.59621 0.43816,-0.97271 -8.12738,0.36157 -13.29054,-2.16874 -15.39405,-7.49997 11.28265,2.98194 17.30628,-4.42775 17.21089,-14.54808 1.9347,1.02859 2.91371,2.92423 3.90388,4.84181 0.57557,1.11481 1.15517,2.23686 1.92846,3.20029 0.72728,-1.77527 0.80156,-3.73201 0.88007,-5.8012 0.0453,-1.19579 0.0923,-2.42916 0.26733,-3.68673 3.44216,3.43378 5.45028,6.86756 4.97211,13.64461 -0.57382,7.1384 -4.68521,14.09623 -9.6573,18.79506 -5.35442,5.06015 -13.09924,7.68075 -20.8441,8.40342 h -4.58956 c -16.82833,-0.63239 -28.11098,-11.20456 -29.16272,-25.75265 -0.95634,-12.28929 4.3983,-21.77721 11.18699,-28.64455 7.07562,-7.22889 16.54143,-11.74693 28.01536,-12.92169 z"
       fill="white"
       id="svg_13"
       style="fill:#ffffff;stroke-width:2.24327" />
    <path
       d="m 261.16058,183.75463 c 4.86202,-4.95223 11.34982,-7.90905 18.22325,-8.30522 6.87236,-0.39598 13.64682,1.79653 19.02905,6.15845 5.38221,4.36167 8.99185,10.58663 10.14169,17.48406 1.14762,6.89743 -0.24465,13.98334 -3.91434,19.90239 l 11.47837,11.67701 c 1.13205,1.19174 1.75922,2.78781 1.74588,4.44473 -0.0157,1.65671 -0.66944,3.24146 -1.82151,4.41304 -1.15205,1.17161 -2.71334,1.83614 -4.34358,1.85039 -1.63024,0.0146 -3.20043,-0.62244 -4.37249,-1.77345 l -11.47837,-11.67068 c -5.8248,3.70233 -12.78387,5.09862 -19.55612,3.92295 -6.77271,-1.17567 -12.88286,-4.84113 -17.16752,-10.29838 -4.28486,-5.45748 -6.44531,-12.32573 -6.06988,-19.29691 0.37542,-6.97119 3.26023,-13.55886 8.10557,-18.50838 z m 6.597,6.69786 c -1.73232,1.76034 -3.10634,3.85034 -4.04378,6.1503 -0.93767,2.3002 -1.42006,4.76535 -1.42006,7.25493 0,2.48958 0.48239,4.95472 1.42006,7.25492 0.93744,2.29997 2.31146,4.38997 4.04378,6.1503 1.73209,1.76033 3.78869,3.15684 6.05279,4.10962 2.26185,0.95257 4.6883,1.44311 7.13697,1.44311 2.45093,0 4.87738,-0.49054 7.13924,-1.44311 2.26408,-0.95278 4.32134,-2.34929 6.05165,-4.10962 3.49844,-3.55619 5.46229,-8.37855 5.46229,-13.40658 -0.002,-5.02804 -1.9683,-9.84949 -5.46672,-13.40387 -3.50068,-3.55461 -8.24458,-5.55069 -13.19312,-5.54957 -4.94629,0.001 -9.69178,1.99971 -13.18932,5.5559 z"
       fill="white"
       id="svg_14"
       style="fill:#ffffff;stroke-width:2.24327" />
  </g>
</svg>
