<svg width="16" height="19" viewBox="0 0 16 19" fill="none" xmlns="http://www.w3.org/2000/svg">
<path d="M14 1.375H2C1.37868 1.375 0.875 1.87868 0.875 2.5V16.75C0.875 17.3713 1.37868 17.875 2 17.875H14C14.6213 17.875 15.125 17.3713 15.125 16.75V2.5C15.125 1.87868 14.6213 1.375 14 1.375Z" stroke="white"/>
<path d="M12.125 6.25H3.875C3.66789 6.25 3.5 6.41789 3.5 6.625C3.5 6.83211 3.66789 7 3.875 7H12.125C12.3321 7 12.5 6.83211 12.5 6.625C12.5 6.41789 12.3321 6.25 12.125 6.25Z" fill="white"/>
<path d="M12.125 12.25H3.875C3.66789 12.25 3.5 12.4179 3.5 12.625C3.5 12.8321 3.66789 13 3.875 13H12.125C12.3321 13 12.5 12.8321 12.5 12.625C12.5 12.4179 12.3321 12.25 12.125 12.25Z" fill="white"/>
<path d="M12.125 9.25H3.875C3.66789 9.25 3.5 9.41789 3.5 9.625C3.5 9.83211 3.66789 10 3.875 10H12.125C12.3321 10 12.5 9.83211 12.5 9.625C12.5 9.41789 12.3321 9.25 12.125 9.25Z" fill="white"/>
</svg>
