<svg width="20" height="20" viewBox="0 0 20 20" fill="none" xmlns="http://www.w3.org/2000/svg">
<path fill-rule="evenodd" clip-rule="evenodd" d="M15.256 14.5456L17.8272 17.0248C17.9376 17.132 18 17.2768 18 17.4288C18 17.58 17.9376 17.7248 17.8264 17.832C17.7712 17.8856 17.7064 17.9272 17.6344 17.956C17.5624 17.9848 17.4856 18 17.408 18C17.3296 18 17.2528 17.9848 17.1808 17.956C17.1088 17.9272 17.044 17.8856 16.9888 17.832L14.372 15.308C13.0744 16.2688 11.456 16.8464 9.69839 16.8464C5.45359 16.8464 2 13.516 2 9.42319C2 5.33039 5.45359 2 9.69839 2C13.9432 2 17.3968 5.33039 17.3968 9.42319C17.3968 11.4096 16.5784 13.212 15.256 14.5456ZM9.69839 3.14238C6.10639 3.14238 3.18398 5.95999 3.18398 9.42319C3.18398 12.8864 6.10639 15.7048 9.69839 15.7048C13.2896 15.7048 16.212 12.8864 16.212 9.42319C16.212 5.95999 13.2896 3.14238 9.69839 3.14238ZM10.468 8.99521H12.6592C12.816 8.99521 12.9664 9.0552 13.0776 9.1624C13.1888 9.2696 13.2512 9.41441 13.2512 9.56641C13.2512 9.71761 13.1888 9.86238 13.0776 9.96958C12.9664 10.0768 12.816 10.1368 12.6592 10.1368H10.468V12.2784C10.468 12.4296 10.4056 12.5752 10.2944 12.6824C10.1832 12.7896 10.0328 12.8496 9.87598 12.8496C9.71918 12.8496 9.56799 12.7896 9.45679 12.6824C9.34639 12.5752 9.28398 12.4296 9.28398 12.2784V10.1368H6.7376C6.58 10.1368 6.42961 10.0768 6.31841 9.96958C6.20721 9.86238 6.14482 9.71761 6.14482 9.56641C6.14482 9.41441 6.20721 9.2696 6.31841 9.1624C6.42961 9.0552 6.58 8.99521 6.7376 8.99521H9.28398V6.56802C9.28398 6.41682 9.34639 6.27121 9.45679 6.16401C9.56799 6.05761 9.71918 5.99678 9.87598 5.99678C10.0328 5.99678 10.1832 6.05761 10.2944 6.16401C10.4056 6.27121 10.468 6.41682 10.468 6.56802V8.99521Z" fill="white"/>
</svg>
