<svg width="160" height="160" viewBox="0 0 160 160" fill="none" xmlns="http://www.w3.org/2000/svg">
<rect width="160" height="160" fill="url(#paint0_linear_10_1372)"/>
<path d="M38.7135 106.785C40.642 106.785 42.0492 107.201 42.9351 108.032C43.821 108.857 44.264 109.995 44.264 111.446C44.264 112.101 44.1652 112.728 43.9676 113.327C43.7699 113.92 43.4462 114.448 42.9965 114.912C42.5535 115.375 41.9607 115.743 41.2179 116.016C40.4751 116.281 39.5585 116.414 38.4681 116.414H37.1086V121.73H33.9398V106.785H38.7135ZM38.5499 109.382H37.1086V113.818H38.1513C38.7441 113.818 39.2586 113.74 39.6948 113.583C40.1309 113.426 40.4682 113.181 40.7068 112.847C40.9453 112.513 41.0645 112.084 41.0645 111.559C41.0645 110.823 40.8601 110.278 40.4512 109.923C40.0423 109.562 39.4086 109.382 38.5499 109.382Z" fill="white"/>
<path d="M59.4845 114.114C59.4845 115.798 59.1608 117.205 58.5134 118.336C57.8728 119.46 56.9426 120.309 55.7228 120.881C54.503 121.447 53.0344 121.73 51.3172 121.73H47.0853V106.785H51.7771C53.3445 106.785 54.704 107.065 55.8557 107.623C57.0074 108.175 57.9001 108.997 58.5339 110.087C59.1676 111.17 59.4845 112.513 59.4845 114.114ZM56.193 114.196C56.193 113.092 56.0295 112.186 55.7024 111.477C55.3821 110.762 54.9051 110.233 54.2713 109.893C53.6444 109.552 52.8675 109.382 51.9407 109.382H50.2541V119.113H51.6136C53.1605 119.113 54.3088 118.701 55.0584 117.876C55.8148 117.051 56.193 115.825 56.193 114.196Z" fill="white"/>
<path d="M65.6995 121.73H62.5818V106.785H71.1478V109.382H65.6995V113.235H70.7696V115.821H65.6995V121.73Z" fill="white"/>
<path d="M91.2339 106.785L86.1536 121.73H82.6986L77.6285 106.785H80.828L83.639 115.678C83.6867 115.828 83.7651 116.111 83.8741 116.527C83.9831 116.936 84.0922 117.372 84.2012 117.835C84.3171 118.292 84.3954 118.67 84.4363 118.97C84.4772 118.67 84.5488 118.292 84.651 117.835C84.76 117.379 84.8656 116.946 84.9679 116.537C85.0769 116.121 85.1553 115.835 85.203 115.678L88.0344 106.785H91.2339Z" fill="white"/>
<path d="M95.9974 110.302V121.73H92.8797V110.302H95.9974ZM94.4436 105.824C94.907 105.824 95.3057 105.933 95.6396 106.151C95.9735 106.363 96.1405 106.761 96.1405 107.347C96.1405 107.927 95.9735 108.329 95.6396 108.554C95.3057 108.772 94.907 108.881 94.4436 108.881C93.9734 108.881 93.5713 108.772 93.2374 108.554C92.9103 108.329 92.7468 107.927 92.7468 107.347C92.7468 106.761 92.9103 106.363 93.2374 106.151C93.5713 105.933 93.9734 105.824 94.4436 105.824Z" fill="white"/>
<path d="M103.991 110.087C105.047 110.087 105.957 110.291 106.72 110.7C107.483 111.102 108.073 111.688 108.489 112.458C108.904 113.228 109.112 114.169 109.112 115.28V116.793H101.742C101.776 117.672 102.039 118.363 102.529 118.868C103.027 119.365 103.715 119.614 104.594 119.614C105.323 119.614 105.991 119.539 106.598 119.389C107.204 119.239 107.828 119.014 108.468 118.714V121.127C107.903 121.406 107.31 121.61 106.69 121.74C106.076 121.869 105.33 121.934 104.451 121.934C103.306 121.934 102.291 121.723 101.405 121.3C100.526 120.878 99.834 120.234 99.3297 119.368C98.8322 118.503 98.5835 117.413 98.5835 116.097C98.5835 114.762 98.8084 113.651 99.2582 112.765C99.7147 111.872 100.349 111.205 101.159 110.762C101.97 110.312 102.914 110.087 103.991 110.087ZM104.011 112.305C103.405 112.305 102.901 112.499 102.499 112.888C102.103 113.276 101.875 113.886 101.814 114.717H106.189C106.182 114.254 106.097 113.842 105.933 113.481C105.776 113.119 105.538 112.833 105.218 112.622C104.904 112.411 104.502 112.305 104.011 112.305Z" fill="white"/>
<path d="M121.041 121.73L120.162 117.733C120.114 117.494 120.036 117.143 119.927 116.68C119.818 116.21 119.699 115.709 119.569 115.177C119.447 114.639 119.331 114.142 119.222 113.685C119.119 113.228 119.044 112.895 118.997 112.683H118.905C118.857 112.895 118.782 113.228 118.68 113.685C118.578 114.142 118.462 114.639 118.332 115.177C118.21 115.716 118.094 116.223 117.985 116.701C117.876 117.171 117.794 117.528 117.739 117.774L116.819 121.73H113.467L110.216 110.302H113.324L114.642 115.361C114.731 115.716 114.816 116.138 114.898 116.629C114.98 117.113 115.051 117.583 115.112 118.04C115.181 118.489 115.232 118.847 115.266 119.113H115.348C115.361 118.915 115.388 118.653 115.429 118.326C115.477 117.999 115.528 117.661 115.583 117.314C115.644 116.959 115.698 116.643 115.746 116.363C115.801 116.077 115.842 115.883 115.869 115.781L117.279 110.302H120.714L122.053 115.781C122.101 115.978 122.162 116.292 122.237 116.721C122.319 117.15 122.39 117.593 122.452 118.05C122.513 118.5 122.547 118.854 122.554 119.113H122.636C122.663 118.881 122.711 118.537 122.779 118.08C122.847 117.624 122.925 117.147 123.014 116.649C123.109 116.145 123.205 115.716 123.3 115.361L124.67 110.302H127.726L124.435 121.73H121.041Z" fill="white"/>
<path d="M63.5835 133.554C63.5835 135.237 63.2598 136.644 62.6124 137.775C61.9718 138.9 61.0416 139.748 59.8218 140.321C58.602 140.886 57.1335 141.169 55.4162 141.169H51.1843V126.224H55.8762C57.4435 126.224 58.803 126.504 59.9547 127.063C61.1064 127.615 61.9991 128.436 62.6329 129.526C63.2666 130.61 63.5835 131.952 63.5835 133.554ZM60.292 133.635C60.292 132.531 60.1285 131.625 59.8014 130.916C59.4811 130.201 59.0041 129.673 58.3703 129.332C57.7434 128.991 56.9665 128.821 56.0397 128.821H54.3531V138.552H55.7126C57.2595 138.552 58.4078 138.14 59.1574 137.315C59.9138 136.491 60.292 135.264 60.292 133.635Z" fill="white"/>
<path d="M71.1478 129.526C72.204 129.526 73.1138 129.731 73.877 130.139C74.6403 130.542 75.2297 131.128 75.6454 131.898C76.0611 132.668 76.269 133.608 76.269 134.719V136.232H68.8989C68.933 137.111 69.1954 137.803 69.686 138.307C70.1835 138.804 70.8718 139.053 71.7509 139.053C72.48 139.053 73.1479 138.978 73.7544 138.828C74.3609 138.678 74.9844 138.453 75.625 138.153V140.566C75.0594 140.845 74.4665 141.05 73.8464 141.179C73.233 141.309 72.4868 141.373 71.6078 141.373C70.4629 141.373 69.4475 141.162 68.5616 140.74C67.6825 140.317 66.9908 139.673 66.4865 138.808C65.9891 137.942 65.7403 136.852 65.7403 135.537C65.7403 134.201 65.9652 133.09 66.415 132.204C66.8716 131.312 67.5053 130.644 68.3163 130.201C69.1272 129.751 70.071 129.526 71.1478 129.526ZM71.1682 131.744C70.5617 131.744 70.0574 131.939 69.6554 132.327C69.2601 132.715 69.0318 133.325 68.9705 134.157H73.3455C73.3387 133.693 73.2535 133.281 73.0899 132.92C72.9332 132.559 72.6947 132.272 72.3744 132.061C72.0609 131.85 71.6589 131.744 71.1682 131.744Z" fill="white"/>
<path d="M92.2255 129.526C93.5202 129.526 94.4981 129.86 95.1592 130.528C95.827 131.189 96.1609 132.252 96.1609 133.717V141.169H93.033V134.494C93.033 133.676 92.8933 133.06 92.6139 132.644C92.3345 132.228 91.9018 132.02 91.3157 132.02C90.4911 132.02 89.9051 132.317 89.5575 132.91C89.21 133.496 89.0362 134.337 89.0362 135.434V141.169H85.9185V134.494C85.9185 133.949 85.8572 133.492 85.7345 133.124C85.6118 132.756 85.4244 132.48 85.1723 132.296C84.9202 132.112 84.5965 132.02 84.2012 132.02C83.622 132.02 83.1654 132.167 82.8315 132.46C82.5044 132.746 82.2693 133.172 82.1262 133.738C81.9899 134.296 81.9217 134.981 81.9217 135.792V141.169H78.804V129.741H81.1857L81.6048 131.203H81.7786C82.0103 130.807 82.2999 130.487 82.6475 130.242C83.0018 129.996 83.3903 129.816 83.8128 129.7C84.2353 129.584 84.6646 129.526 85.1007 129.526C85.9389 129.526 86.6477 129.662 87.2269 129.935C87.813 130.208 88.2627 130.63 88.5762 131.203H88.8522C89.1929 130.616 89.6734 130.191 90.2935 129.925C90.9204 129.659 91.5644 129.526 92.2255 129.526Z" fill="white"/>
<path d="M109.756 135.434C109.756 136.388 109.627 137.234 109.368 137.969C109.116 138.705 108.744 139.329 108.253 139.84C107.77 140.344 107.184 140.726 106.495 140.985C105.814 141.244 105.044 141.373 104.185 141.373C103.381 141.373 102.642 141.244 101.967 140.985C101.299 140.726 100.716 140.344 100.219 139.84C99.7284 139.329 99.3467 138.705 99.0742 137.969C98.8084 137.234 98.6755 136.388 98.6755 135.434C98.6755 134.167 98.9004 133.094 99.3502 132.215C99.7999 131.335 100.44 130.668 101.272 130.211C102.103 129.754 103.095 129.526 104.246 129.526C105.316 129.526 106.264 129.754 107.088 130.211C107.92 130.668 108.57 131.335 109.041 132.215C109.518 133.094 109.756 134.167 109.756 135.434ZM101.855 135.434C101.855 136.184 101.936 136.814 102.1 137.326C102.263 137.837 102.519 138.222 102.867 138.481C103.214 138.74 103.667 138.869 104.226 138.869C104.778 138.869 105.224 138.74 105.565 138.481C105.913 138.222 106.165 137.837 106.322 137.326C106.485 136.814 106.567 136.184 106.567 135.434C106.567 134.678 106.485 134.051 106.322 133.554C106.165 133.049 105.913 132.671 105.565 132.419C105.218 132.167 104.764 132.041 104.206 132.041C103.381 132.041 102.781 132.324 102.407 132.889C102.039 133.455 101.855 134.303 101.855 135.434Z" fill="white"/>
<path fill-rule="evenodd" clip-rule="evenodd" d="M104.72 22.3076C106.093 23.5791 107.186 24.6344 108 25.4736C108.814 26.3127 109.437 27.0248 109.869 27.6096C110.301 28.1945 110.568 28.6904 110.67 29.0973C110.772 29.5041 110.823 29.8601 110.823 30.1653V31.3859H99.5319C99.0233 31.3859 98.5783 31.1952 98.1969 30.8137C97.8154 30.4323 97.4976 29.9873 97.2433 29.4787C96.989 28.9701 96.7982 28.4488 96.6711 27.9148C96.544 27.3808 96.4804 26.9612 96.4804 26.656V17.1963H96.7092C97.1161 17.1963 97.5357 17.2599 97.968 17.387C98.4003 17.5142 98.8962 17.7557 99.4556 18.1117C100.015 18.4678 100.714 18.9763 101.554 19.6375C102.393 20.2987 103.448 21.1887 104.72 22.3076ZM91.6742 26.7323C91.6742 27.7495 91.8268 28.8048 92.1319 29.8983C92.4371 30.9917 92.9203 32.0089 93.5814 32.9498C94.2426 33.8907 95.0818 34.6663 96.0989 35.2766C97.1161 35.8869 98.3113 36.1921 99.6845 36.1921H110.823V64.016C108.72 63.0974 106.398 62.5878 103.957 62.5878C94.4767 62.5878 86.7918 70.2727 86.7918 79.7526C86.7918 83.0539 87.7237 86.1375 89.3389 88.7547H63.4476C62.4812 88.7547 61.4259 88.4749 60.2816 87.9155C59.1373 87.356 58.0692 86.6186 57.0775 85.7031C56.0858 84.7877 55.2593 83.7451 54.5981 82.5753C53.937 81.4056 53.6064 80.1849 53.6064 78.9135V27.0375C53.6064 25.9694 53.848 24.8633 54.3311 23.7189C54.8143 22.5746 55.4754 21.5193 56.3146 20.553C57.1538 19.5867 58.1074 18.7856 59.1754 18.1499C60.2435 17.5142 61.3624 17.1963 62.5321 17.1963H91.6742V26.7323ZM83.4889 34.7425H85.8964C93.42 35.3016 97.2032 39.7346 98.235 46.0445C95.9995 41.5716 92.6891 38.0572 85.2946 38.3767C88.8199 39.6946 92.2592 41.0924 92.9041 45.086C91.5713 43.4087 88.8629 41.931 85.8964 42.0908C80.3505 42.4103 74.9336 46.8032 75.0196 52.3544C75.0626 56.5077 78.029 59.463 82.5861 59.463C85.0366 59.463 87.0142 58.5045 88.304 57.3064C88.3183 57.2931 88.3398 57.2765 88.3649 57.2571C88.4903 57.16 88.7052 56.9936 88.5619 56.8272C84.9076 56.987 82.5861 55.8687 81.6403 53.5125C86.7133 54.8304 89.4217 51.5556 89.3788 47.0828C90.2487 47.5374 90.6889 48.3752 91.1341 49.2227C91.3929 49.7154 91.6535 50.2113 92.0012 50.6371C92.3282 49.8525 92.3616 48.9877 92.3969 48.0732C92.4173 47.5447 92.4384 46.9996 92.5171 46.4438C94.0648 47.9614 94.9677 49.479 94.7527 52.4742C94.4947 55.6291 92.6461 58.7042 90.4105 60.7809C88.003 63.0173 84.5207 64.1755 81.0384 64.4949H78.9748C71.4083 64.2154 66.3353 59.5429 65.8624 53.1132C65.4324 47.6818 67.84 43.4885 70.8924 40.4534C74.0738 37.2585 78.3299 35.2617 83.4889 34.7425Z" fill="white"/>
<path d="M94.8783 70.841C97.0644 68.6523 99.9815 67.3455 103.072 67.1704C106.162 66.9954 109.208 67.9644 111.628 69.8922C114.048 71.8199 115.671 74.5711 116.188 77.6195C116.704 80.6679 116.078 83.7996 114.428 86.4156L119.589 91.5764C120.098 92.1031 120.38 92.8085 120.374 93.5408C120.367 94.273 120.073 94.9734 119.555 95.4912C119.037 96.009 118.335 96.3027 117.602 96.309C116.869 96.3154 116.163 96.0339 115.636 95.5252L110.475 90.3672C107.856 92.0035 104.727 92.6206 101.682 92.101C98.6368 91.5814 95.8895 89.9614 93.963 87.5495C92.0364 85.1375 91.065 82.102 91.2338 79.021C91.4026 75.94 92.6997 73.0285 94.8783 70.841ZM97.8445 73.8012C97.0656 74.5792 96.4478 75.5029 96.0263 76.5194C95.6047 77.536 95.3878 78.6255 95.3878 79.7258C95.3878 80.8261 95.6047 81.9156 96.0263 82.9322C96.4478 83.9487 97.0656 84.8724 97.8445 85.6504C98.6233 86.4284 99.548 87.0456 100.566 87.4667C101.583 87.8877 102.674 88.1045 103.775 88.1045C104.877 88.1045 105.968 87.8877 106.985 87.4667C108.003 87.0456 108.928 86.4284 109.706 85.6504C111.279 84.0787 112.162 81.9474 112.162 79.7252C112.161 77.503 111.277 75.3721 109.704 73.8012C108.13 72.2302 105.997 71.348 103.772 71.3485C101.548 71.349 99.4143 72.2323 97.8417 73.804L97.8445 73.8012Z" fill="white"/>
<defs>
<linearGradient id="paint0_linear_10_1372" x1="150.654" y1="-4.85981" x2="9.71962" y2="168.598" gradientUnits="userSpaceOnUse">
<stop stop-color="#FF8C29"/>
<stop offset="1" stop-color="#E05100"/>
</linearGradient>
</defs>
</svg>
