<?xml version="1.0" encoding="UTF-8" standalone="no"?>
<svg
   width="256"
   height="256"
   viewBox="0 0 256 256"
   fill="none"
   version="1.1"
   id="svg76"
   sodipodi:docname="appicon.svg"
   inkscape:version="1.2.2 (732a01da63, 2022-12-09)"
   xmlns:inkscape="http://www.inkscape.org/namespaces/inkscape"
   xmlns:sodipodi="http://sodipodi.sourceforge.net/DTD/sodipodi-0.dtd"
   xmlns="http://www.w3.org/2000/svg"
   xmlns:svg="http://www.w3.org/2000/svg">
  <sodipodi:namedview
     id="namedview78"
     pagecolor="#ffffff"
     bordercolor="#000000"
     borderopacity="0.25"
     inkscape:showpageshadow="2"
     inkscape:pageopacity="0.0"
     inkscape:pagecheckerboard="0"
     inkscape:deskcolor="#d1d1d1"
     showgrid="false"
     inkscape:zoom="1.6604736"
     inkscape:cx="56.911475"
     inkscape:cy="128.8789"
     inkscape:window-width="1920"
     inkscape:window-height="1017"
     inkscape:window-x="-8"
     inkscape:window-y="-8"
     inkscape:window-maximized="1"
     inkscape:current-layer="svg76" />
  <rect
     width="256"
     height="256"
     fill="url(#paint0_linear_51_2702)"
     id="rect41"
     style="fill:url(#paint0_linear_51_2702)"
     x="0.23765412"
     y="0.37430212" />
  <path
     d="m 84.034307,153.5337 c 2.053246,0 3.551408,0.45003 4.494622,1.35076 0.943147,0.89261 1.414788,2.12494 1.414788,3.69634 0,0.70853 -0.105202,1.3873 -0.315602,2.03697 -0.210402,0.64154 -0.555017,1.21339 -1.03391,1.71552 -0.471574,0.50147 -1.102778,0.90006 -1.893614,1.19513 -0.790768,0.2876 -1.766654,0.43174 -2.927455,0.43174 h -1.447393 v 5.75564 h -3.373677 v -16.1821 z m -0.174136,2.81184 h -1.534428 v 4.80346 h 1.110031 c 0.631205,0 1.178968,-0.0852 1.643289,-0.25446 0.464319,-0.16986 0.823507,-0.4358 1.077426,-0.79718 0.253918,-0.36137 0.380878,-0.82629 0.380878,-1.39475 0,-0.79652 -0.217656,-1.38732 -0.652962,-1.77103 -0.435309,-0.39114 -1.110032,-0.58604 -2.024234,-0.58604 z"
     fill="white"
     id="path43"
     style="fill:#ffffff;stroke-width:0.671046" />
  <path
     d="m 106.14824,161.46977 c 0,1.82246 -0.34462,3.34645 -1.03391,4.57135 -0.68198,1.21746 -1.6723,2.13577 -2.97098,2.75566 -1.29867,0.61246 -2.862185,0.91902 -4.690522,0.91902 h -4.505467 v -16.1821 h 4.995208 c 1.668705,0 3.116101,0.30249 4.342241,0.90751 1.22615,0.59824 2.17656,1.48745 2.85128,2.66768 0.67479,1.17347 1.01215,2.6271 1.01215,4.36088 z m -3.50431,0.0886 c 0,-1.19579 -0.17414,-2.17706 -0.52235,-2.94448 -0.34102,-0.7742 -0.84886,-1.3467 -1.52365,-1.71552 -0.667459,-0.36882 -1.494557,-0.55289 -2.481226,-0.55289 h -1.795666 v 10.53675 h 1.447393 c 1.646946,0 2.869439,-0.44665 3.667519,-1.33925 0.80535,-0.89329 1.20798,-2.22106 1.20798,-3.98461 z"
     fill="white"
     id="path45"
     style="fill:#ffffff;stroke-width:0.671046" />
  <path
     d="m 112.76483,169.7158 h -3.31904 v -16.1821 h 9.11939 v 2.81184 h -5.80035 v 4.17207 h 5.3978 v 2.80032 h -5.3978 z"
     fill="white"
     id="path47"
     style="fill:#ffffff;stroke-width:0.671046" />
  <path
     d="m 139.95002,153.5337 -5.40841,16.1821 h -3.67837 l -5.39778,-16.1821 h 3.40621 l 2.99234,9.62927 c 0.0511,0.16242 0.1344,0.46897 0.25086,0.919 0.11577,0.44258 0.23222,0.91495 0.34801,1.4164 0.1231,0.4947 0.20692,0.90411 0.25018,1.22895 0.0439,-0.32484 0.11977,-0.73425 0.2289,-1.22895 0.11578,-0.49402 0.22824,-0.96299 0.33736,-1.40557 0.11578,-0.45002 0.19897,-0.75997 0.25021,-0.92983 l 3.01428,-9.62927 z"
     fill="white"
     id="path49"
     style="fill:#ffffff;stroke-width:0.671046" />
  <path
     d="m 145.02175,157.34169 v 12.37411 h -3.31905 v -12.37411 z m -1.65419,-4.84812 c 0.49306,0 0.91759,0.11775 1.27291,0.35392 0.356,0.22874 0.53366,0.66051 0.53366,1.29528 0,0.62733 -0.17766,1.06247 -0.53366,1.30609 -0.35532,0.23619 -0.77985,0.35394 -1.27291,0.35394 -0.50039,0 -0.92891,-0.11775 -1.28425,-0.35394 -0.348,-0.24362 -0.52234,-0.67876 -0.52234,-1.30609 0,-0.63477 0.17434,-1.06654 0.52234,-1.29528 0.35534,-0.23617 0.78386,-0.35392 1.28425,-0.35392 z"
     fill="white"
     id="path51"
     style="fill:#ffffff;stroke-width:0.671046" />
  <path
     d="m 153.5323,157.10889 c 1.12453,0 2.0927,0.22129 2.90515,0.66388 0.81314,0.43582 1.44063,1.06993 1.88311,1.90364 0.44251,0.83443 0.66341,1.85225 0.66341,3.0548 v 1.63838 h -7.84646 c 0.0366,0.95216 0.31606,1.70062 0.83841,2.24675 0.52966,0.53869 1.26228,0.80803 2.19783,0.80803 0.77653,0 1.48786,-0.0812 2.1333,-0.24364 0.64611,-0.16241 1.30952,-0.40535 1.99156,-0.73019 v 2.6122 c -0.60219,0.3025 -1.233,0.5238 -1.89375,0.66387 -0.65276,0.14008 -1.44726,0.21048 -2.38282,0.21048 -1.21902,0 -2.3003,-0.22875 -3.24319,-0.68622 -0.93624,-0.45747 -1.67283,-1.15517 -2.20915,-2.09178 -0.52966,-0.93729 -0.79449,-2.11818 -0.79449,-3.54203 0,-1.44619 0.23887,-2.64874 0.71798,-3.60836 0.4864,-0.96637 1.16113,-1.6898 2.02416,-2.16894 0.86369,-0.48723 1.86846,-0.73087 3.01495,-0.73087 z m 0.0214,2.40174 c -0.64543,0 -1.18241,0.21046 -1.61028,0.63071 -0.42119,0.42094 -0.66407,1.08142 -0.72929,1.98148 h 4.65785 c -0.008,-0.50146 -0.0978,-0.94811 -0.27215,-1.33924 -0.16702,-0.39116 -0.42054,-0.7011 -0.76189,-0.92984 -0.33337,-0.22875 -0.7619,-0.34311 -1.28424,-0.34311 z"
     fill="white"
     id="path53"
     style="fill:#ffffff;stroke-width:0.671046" />
  <path
     d="m 171.6846,169.7158 -0.93622,-4.32773 c -0.0505,-0.25851 -0.13376,-0.63817 -0.25022,-1.14029 -0.11577,-0.50892 -0.24286,-1.05165 -0.38061,-1.62688 -0.13041,-0.58267 -0.25419,-1.12135 -0.36996,-1.61605 -0.10912,-0.49401 -0.18899,-0.85605 -0.23953,-1.0848 h -0.0978 c -0.0511,0.22875 -0.13107,0.59079 -0.23953,1.0848 -0.10912,0.4947 -0.23223,1.03338 -0.36997,1.61605 -0.13042,0.58268 -0.25418,1.13286 -0.36996,1.6492 -0.11646,0.50891 -0.20362,0.89668 -0.26151,1.16195 l -0.97947,4.28375 h -3.56925 l -3.46078,-12.37411 h 3.3084 l 1.40401,5.47817 c 0.0938,0.38372 0.18497,0.84118 0.27149,1.37242 0.0873,0.52379 0.16369,1.03338 0.22889,1.52739 0.0726,0.48725 0.1271,0.87435 0.16304,1.16263 h 0.0872 c 0.0147,-0.21452 0.0439,-0.49808 0.0873,-0.85267 0.0506,-0.35394 0.10514,-0.71938 0.16303,-1.09565 0.0651,-0.3837 0.12375,-0.72681 0.17433,-1.02932 0.0577,-0.30994 0.10177,-0.5204 0.13043,-0.63071 l 1.5018,-5.93226 h 3.65708 l 1.42531,5.93226 c 0.0506,0.21385 0.11644,0.55358 0.19564,1.0185 0.0872,0.46423 0.16368,0.94403 0.2289,1.43873 0.0651,0.48657 0.10177,0.87026 0.10846,1.15112 h 0.0872 c 0.0292,-0.25107 0.0798,-0.62393 0.15238,-1.11796 0.0726,-0.49469 0.15636,-1.01106 0.25019,-1.54972 0.10177,-0.54613 0.20362,-1.01104 0.30475,-1.39476 l 1.45859,-5.47817 h 3.25382 L 175.298,169.7158 Z"
     fill="white"
     id="path55"
     style="fill:#ffffff;stroke-width:0.671046" />
  <path
     d="m 110.51245,182.51826 c 0,1.82245 -0.3447,3.34646 -1.03407,4.57067 -0.68203,1.21812 -1.67236,2.13645 -2.97102,2.75635 -1.29867,0.61244 -2.86219,0.91832 -4.69053,0.91832 h -4.505467 v -16.1814 h 4.995207 c 1.66871,0 3.11611,0.30249 4.34226,0.90749 1.22612,0.59756 2.17654,1.4868 2.85152,2.6677 0.67473,1.17346 1.0121,2.6264 1.0121,4.36087 z m -3.50451,0.0886 c 0,-1.19578 -0.17414,-2.17707 -0.52235,-2.94448 -0.34101,-0.77485 -0.84885,-1.34669 -1.52358,-1.71551 -0.66753,-0.36883 -1.49457,-0.55358 -2.48131,-0.55358 h -1.79566 v 10.53678 h 1.4474 c 1.64695,0 2.86943,-0.44597 3.66752,-1.33928 0.80535,-0.8926 1.20798,-2.22036 1.20798,-3.98393 z"
     fill="white"
     id="path57"
     style="fill:#ffffff;stroke-width:0.671046" />
  <path
     d="m 118.56518,178.15739 c 1.12522,0 2.09337,0.22129 2.90583,0.66386 0.81247,0.43516 1.44062,1.06994 1.88311,1.90367 0.4425,0.83373 0.66341,1.85221 0.66341,3.05477 v 1.63838 h -7.84647 c 0.0366,0.95151 0.31606,1.70065 0.8384,2.24677 0.52968,0.53866 1.2623,0.80801 2.19785,0.80801 0.77653,0 1.48784,-0.0812 2.13329,-0.24361 0.64545,-0.16242 1.30953,-0.40605 1.99157,-0.73021 v 2.61153 c -0.60221,0.3025 -1.23366,0.52446 -1.89377,0.66455 -0.65274,0.14008 -1.44725,0.20978 -2.38347,0.20978 -1.21836,0 -2.29964,-0.22873 -3.24253,-0.68621 -0.93622,-0.45747 -1.67283,-1.1545 -2.20914,-2.09178 -0.52968,-0.9366 -0.79451,-2.11749 -0.79451,-3.54136 0,-1.44617 0.23889,-2.64941 0.71798,-3.60833 0.4864,-0.96639 1.16113,-1.68983 2.02417,-2.16963 0.86369,-0.48656 1.86847,-0.73019 3.01428,-0.73019 z m 0.0219,2.40173 c -0.64544,0 -1.18242,0.21045 -1.61029,0.63072 -0.4212,0.42092 -0.66407,1.08142 -0.72928,1.98148 h 4.65785 c -0.008,-0.50214 -0.0978,-0.9481 -0.27215,-1.33927 -0.16702,-0.39114 -0.42055,-0.70109 -0.76189,-0.92983 -0.33337,-0.22874 -0.76189,-0.3431 -1.28424,-0.3431 z"
     fill="white"
     id="path59"
     style="fill:#ffffff;stroke-width:0.671046" />
  <path
     d="m 141.00603,178.15739 c 1.37805,0 2.41941,0.36136 3.12341,1.08481 0.71066,0.71532 1.06665,1.86642 1.06665,3.45268 v 8.06872 h -3.33037 v -7.22754 c 0,-0.88516 -0.14905,-1.55311 -0.44648,-2.00312 -0.29742,-0.45003 -0.7579,-0.67471 -1.38204,-0.67471 -0.87768,0 -1.50183,0.32077 -1.87179,0.96233 -0.36996,0.63477 -0.55495,1.54633 -0.55495,2.73398 v 6.20906 h -3.31904 v -7.22754 c 0,-0.5901 -0.0652,-1.08412 -0.1963,-1.48272 -0.13042,-0.39857 -0.33004,-0.69702 -0.59821,-0.89666 -0.26881,-0.19896 -0.61349,-0.29845 -1.03403,-0.29845 -0.61685,0 -1.10259,0.15836 -1.45857,0.47574 -0.34802,0.30996 -0.59821,0.77082 -0.75059,1.38325 -0.14505,0.605 -0.21758,1.3467 -0.21758,2.22509 v 5.82129 h -3.31973 v -12.37411 h 2.53589 l 0.44647,1.58291 h 0.18499 c 0.24686,-0.4277 0.55495,-0.77488 0.92491,-1.04016 0.37729,-0.26596 0.7905,-0.46153 1.24099,-0.58672 0.44981,-0.12521 0.90628,-0.18813 1.37072,-0.18813 0.89233,0 1.6469,0.14751 2.26372,0.44258 0.62415,0.29505 1.10259,0.75253 1.43662,1.37243 h 0.29411 c 0.36264,-0.6348 0.87368,-1.09565 1.53443,-1.38327 0.6674,-0.28828 1.35277,-0.43174 2.05677,-0.43174 z"
     fill="white"
     id="path61"
     style="fill:#ffffff;stroke-width:0.671046" />
  <path
     d="m 159.67002,184.55454 c 0,1.03339 -0.13775,1.94835 -0.4139,2.74486 -0.26816,0.7972 -0.66341,1.4719 -1.18574,2.02545 -0.51569,0.54613 -1.13919,0.95963 -1.87179,1.2398 -0.72597,0.28016 -1.54574,0.42024 -2.46002,0.42024 -0.8557,0 -1.64288,-0.14008 -2.36153,-0.42024 -0.71065,-0.28017 -1.33147,-0.69367 -1.86113,-1.2398 -0.52234,-0.55355 -0.92824,-1.22825 -1.21835,-2.02545 -0.28348,-0.79651 -0.42455,-1.71147 -0.42455,-2.74486 0,-1.37241 0.23955,-2.53434 0.71798,-3.48651 0.4791,-0.95151 1.16113,-1.67493 2.04614,-2.16894 0.88499,-0.49471 1.94098,-0.7417 3.16665,-0.7417 1.13919,0 2.14795,0.24699 3.02561,0.7417 0.88498,0.49401 1.57835,1.21743 2.07873,2.16894 0.50772,0.95217 0.7619,2.1141 0.7619,3.48651 z m -8.41274,0 c 0,0.81212 0.0872,1.49426 0.26151,2.04782 0.17434,0.55355 0.44582,0.97043 0.81578,1.2506 0.37064,0.28017 0.85305,0.42026 1.44793,0.42026 0.58756,0 1.06266,-0.14009 1.4253,-0.42026 0.36997,-0.28017 0.63878,-0.69705 0.80581,-1.2506 0.17366,-0.55356 0.26084,-1.2357 0.26084,-2.04782 0,-0.81882 -0.0873,-1.4976 -0.26084,-2.03628 -0.16703,-0.54613 -0.43584,-0.95555 -0.80581,-1.22895 -0.36998,-0.27272 -0.85239,-0.40943 -1.44726,-0.40943 -0.87767,0 -1.51646,0.30657 -1.9157,0.91901 -0.39127,0.61245 -0.58756,1.53078 -0.58756,2.75565 z"
     fill="white"
     id="path63"
     style="fill:#ffffff;stroke-width:0.671046" />
  <path
     fill-rule="evenodd"
     clip-rule="evenodd"
     d="m 152.7006,71.770679 c 1.43072,1.254897 2.57035,2.29643 3.41824,3.124659 0.84788,0.828168 1.49714,1.530933 1.94714,2.10817 0.45064,0.577238 0.7287,1.066637 0.83485,1.468199 0.10616,0.401564 0.1589,0.752914 0.1589,1.054055 v 1.204686 h -11.76422 c -0.5301,0 -0.99377,-0.188197 -1.39102,-0.564654 -0.39724,-0.376457 -0.7287,-0.815708 -0.99375,-1.317629 -0.26505,-0.501984 -0.46368,-1.016428 -0.59586,-1.543516 -0.13285,-0.527027 -0.19863,-0.941112 -0.19863,-1.242314 v -9.336226 h 0.23835 c 0.42394,0 0.8609,0.0628 1.31155,0.188259 0.45065,0.125466 0.96706,0.363935 1.5499,0.715287 0.58284,0.351351 1.31155,0.853274 2.18614,1.505827 0.87392,0.652553 1.97382,1.530932 3.29841,2.635197 z m -13.59221,4.366972 c 0,1.003906 0.1589,2.045437 0.47669,3.124597 0.31779,1.079221 0.82119,2.083127 1.51018,3.011716 0.68899,0.92859 1.56357,1.694025 2.6231,2.296367 1.06018,0.602344 2.30531,0.903546 3.73603,0.903546 h 11.60534 v 27.460873 c -2.19069,-0.90676 -4.60995,-1.41009 -7.15362,-1.41009 -9.87765,0 -17.88503,7.58465 -17.88503,16.94086 0,3.25815 0.97097,6.30161 2.65371,8.88433 h -26.97732 c -1.00678,0 -2.10636,-0.27574 -3.29868,-0.82779 -1.19231,-0.55207 -2.30518,-1.27994 -3.33853,-2.18361 -1.03329,-0.90367 -1.89446,-1.93255 -2.58332,-3.08728 -0.68892,-1.15411 -1.03335,-2.3588 -1.03335,-3.61344 V 76.438792 c 0,-1.054054 0.2517,-2.145797 0.75509,-3.275167 0.50345,-1.129372 1.19237,-2.170965 2.0667,-3.12466 0.8744,-0.953694 1.86803,-1.744234 2.98082,-2.371683 1.11287,-0.627448 2.27867,-0.941173 3.49724,-0.941173 h 30.36495 z m -8.52899,7.905653 h 2.50849 c 7.83935,0.551763 11.78118,4.926816 12.85633,11.154297 -2.32941,-4.414407 -5.77825,-7.882892 -13.48345,-7.567564 3.67352,1.300667 7.25716,2.680165 7.92922,6.621642 -1.38904,-1.65541 -4.21076,-3.11374 -7.3021,-2.956137 -5.77825,0.315326 -11.42235,4.650964 -11.33313,10.129608 0.0449,4.09914 3.13562,7.0158 7.88429,7.0158 2.55341,0 4.61387,-0.94598 5.95733,-2.1284 0.015,-0.0131 0.0378,-0.0295 0.0637,-0.0487 0.13024,-0.0958 0.35427,-0.26 0.20514,-0.42426 -3.80768,0.15766 -6.22628,-0.94593 -7.21223,-3.27141 5.28593,1.30067 8.1083,-1.93133 8.06337,-6.345732 0.90649,0.448627 1.36496,1.275499 1.82926,2.111933 0.26961,0.486254 0.54117,0.975716 0.90324,1.395967 0.34059,-0.774379 0.37575,-1.627836 0.41222,-2.530396 0.0214,-0.521598 0.0436,-1.059605 0.12504,-1.608161 1.61307,1.497747 2.55342,2.995494 2.32941,5.951639 -0.26831,3.11374 -2.19461,6.14865 -4.52401,8.19822 -2.5085,2.20742 -6.13708,3.35043 -9.76566,3.66563 h -2.14967 c -7.88427,-0.27573 -13.1702,-4.88747 -13.66251,-11.23326 -0.44804,-5.360394 2.06045,-9.498889 5.24099,-12.494443 3.3147,-3.153158 7.74949,-5.123896 13.12464,-5.636243 z"
     fill="white"
     id="path65"
     style="fill:#ffffff;stroke-width:0.633794" />
  <path
     d="m 142.44654,119.67063 c 2.27796,-2.16017 5.31718,-3.44997 8.53745,-3.62269 3.21962,-0.17272 6.39366,0.78338 8.91516,2.68572 2.52087,1.90294 4.21273,4.61827 4.75128,7.62659 0.53791,3.00894 -0.11461,6.0993 -1.83384,8.68139 l 5.37777,5.09324 c 0.53007,0.51998 0.82377,1.2164 0.81727,1.93872 -0.007,0.72293 -0.31322,1.4138 -0.85309,1.92516 -0.53985,0.51073 -1.27054,0.80066 -2.03441,0.80682 -0.76387,0.007 -1.49975,-0.27141 -2.04872,-0.77352 l -5.37775,-5.09077 c -2.72861,1.61551 -5.9899,2.22433 -9.16198,1.71173 -3.17273,-0.51322 -6.03548,-2.11206 -8.04252,-4.49244 -2.00771,-2.38038 -3.0197,-5.37636 -2.84388,-8.41677 0.17584,-3.04101 1.52776,-5.91425 3.79726,-8.07318 z m 3.09067,2.92135 c -0.81141,0.76796 -1.45547,1.67966 -1.8944,2.68263 -0.43891,1.0036 -0.66553,2.07876 -0.66553,3.16438 0,1.08626 0.22662,2.16142 0.66553,3.1644 0.43893,1.00358 1.08299,1.91527 1.8944,2.68325 0.81142,0.76733 1.77522,1.37677 2.8354,1.79253 1.06018,0.41512 2.19655,0.62916 3.34465,0.62916 1.14744,0 2.28382,-0.21404 3.34401,-0.62916 1.06082,-0.41576 2.02398,-1.0252 2.83539,-1.79253 1.63911,-1.55136 2.55928,-3.65478 2.55863,-5.84826 -6.5e-4,-2.19285 -0.92213,-4.29628 -2.56124,-5.8464 -1.63976,-1.55072 -3.86236,-2.4211 -6.18069,-2.42048 -2.31769,0 -4.5403,0.87221 -6.17875,2.42295 z"
     fill="white"
     id="path67"
     style="fill:#ffffff;stroke-width:0.633794" />
  <defs
     id="defs74">
    <linearGradient
       id="paint0_linear_51_2702"
       x1="241.047"
       y1="-7.77569"
       x2="15.5514"
       y2="269.757"
       gradientUnits="userSpaceOnUse"
       gradientTransform="translate(0.23762367,0.374302)">
      <stop
         stop-color="#FF8C29"
         id="stop69" />
      <stop
         offset="1"
         stop-color="#E05100"
         id="stop71" />
    </linearGradient>
  </defs>
</svg>
